 <svg version="1.0" xmlns="http://www.w3.org/2000/svg"  width="300.000000pt" height="128.000000pt" viewBox="0 0 300.000000 128.000000"  preserveAspectRatio="xMidYMid meet">  <g transform="translate(0.000000,128.000000) scale(0.100000,-0.100000)" fill="#000000" stroke="none"> <path d="M397 1033 c-13 -12 -7 -22 8 -16 14 5 13 0 -2 -30 -12 -23 -23 -35 -33 -32 -8 3 -28 1 -45 -3 -23 -7 -30 -14 -30 -33 0 -15 6 -24 15 -24 8 0 15 7 15 15 0 8 -7 14 -15 12 -12 -3 -13 -1 -2 10 11 11 16 10 26 -5 19 -25 29 -142 15 -170 -15 -27 -60 -200 -53 -206 2 -2 28 -6 58 -9 l54 -4 1 -128 1 -128 -33 -7 c-57 -11 -67 -16 -67 -30 0 -20 43 -30 126 -29 116 2 154 41 57 58 l-50 9 0 86 c0 47 -3 104 -7 127 l-7 41 52 6 c29 4 56 10 61 15 10 10 -23 156 -46 200 -18 35 -11 148 10 156 8 3 13 2 11 -2 -1 -4 3 -8 8 -10 6 -1 11 6 13 17 4 26 -31 44 -71 38 -39 -5 -65 16 -47 38 20 24 -2 59 -23 38z m50 -189 c-3 -33 2 -66 18 -113 45 -133 40 -153 -38 -155 -86 -1 -93 17 -51 142 18 55 23 86 19 114 -8 46 -1 58 32 58 25 0 25 -2 20 -46z"/> <path d="M1930 982 c0 -26 -20 -42 -54 -43 -27 -2 -26 -3 9 -8 34 -5 40 -10 43 -33 2 -16 7 -28 12 -28 5 0 10 12 12 28 3 23 9 28 43 33 22 3 30 7 17 8 -36 2 -62 20 -62 41 0 11 -4 20 -10 20 -5 0 -10 -8 -10 -18z"/> <path d="M2035 900 c-4 -6 -1 -17 5 -25 10 -12 14 -12 28 1 13 13 13 17 1 25 -18 12 -26 11 -34 -1z"/> <path d="M980 653 c-41 -102 -76 -190 -78 -195 -2 -4 17 -8 42 -8 39 0 46 3 46 20 0 18 7 20 66 20 57 0 67 -3 71 -20 4 -16 14 -20 50 -20 32 0 44 4 40 13 -3 6 -39 94 -79 194 -40 100 -75 182 -78 182 -3 1 -39 -83 -80 -186z m100 36 c0 -5 -9 -9 -20 -9 -22 0 -23 1 -14 24 5 13 9 14 20 5 8 -6 14 -15 14 -20z m-2 -78 c16 -52 16 -51 -22 -51 l-34 0 17 45 c9 25 19 45 22 45 3 0 11 -17 17 -39z"/> <path d="M1344 819 c-42 -12 -75 -50 -81 -96 -7 -50 23 -88 94 -119 54 -24 67 -46 41 -72 -16 -16 -67 -15 -102 3 -15 8 -30 15 -32 15 -2 0 -4 -18 -4 -40 0 -48 20 -60 105 -60 46 0 60 5 87 29 28 25 33 36 33 74 0 56 -21 81 -93 114 -48 21 -53 26 -50 51 3 25 6 27 53 27 28 0 53 4 57 10 14 19 8 54 -9 58 -46 13 -70 14 -99 6z"/> <path d="M2167 816 c-76 -28 -117 -91 -117 -179 0 -115 76 -190 190 -190 147 0 233 142 171 280 -37 81 -152 123 -244 89z m132 -80 c57 -30 70 -125 23 -177 -21 -24 -38 -32 -75 -36 -43 -5 -49 -3 -82 30 -29 29 -35 42 -35 79 1 51 18 86 51 104 32 18 83 17 118 0z"/> <path d="M2500 640 l0 -190 41 0 41 0 -4 100 c-1 55 -1 100 2 100 3 0 46 -47 95 -105 50 -57 96 -104 103 -104 9 -1 12 43 12 189 l0 190 -41 0 -42 0 5 -105 c3 -58 1 -105 -3 -105 -4 0 -9 4 -11 10 -7 22 -173 210 -185 210 -10 0 -13 -43 -13 -190z m80 60 c8 -15 6 -21 -10 -30 -18 -10 -20 -8 -20 20 0 34 14 39 30 10z m170 -130 c0 -28 -15 -32 -34 -11 -17 18 -16 20 1 29 22 13 33 7 33 -18z"/> <path d="M680 635 l0 -185 38 0 37 0 -3 75 -4 75 51 0 51 0 0 35 0 35 -50 0 -50 0 0 40 0 40 60 0 60 0 0 35 0 35 -95 0 -95 0 0 -185z"/> <path d="M1550 635 l0 -185 41 0 41 0 -4 75 -3 75 58 0 57 0 0 -75 0 -75 38 0 37 0 0 185 0 185 -37 0 -38 0 0 -75 0 -76 -57 3 -56 3 2 73 2 72 -40 0 -41 0 0 -185z"/> <path d="M1900 635 l0 -185 38 0 37 0 0 185 0 185 -37 0 -38 0 0 -185z"/> <path d="M1012 268 c2 -24 8 -42 13 -40 6 2 9 10 7 18 -2 8 5 14 14 14 16 0 16 2 -2 15 -17 13 -17 14 -2 15 32 0 30 20 -2 20 -30 0 -31 -1 -28 -42z"/> <path d="M1129 283 c-5 -16 -11 -33 -14 -40 -7 -19 7 -23 21 -5 11 16 13 16 33 -2 25 -23 27 -12 6 38 -18 43 -32 46 -46 9z"/> <path d="M1243 294 c-4 -10 1 -22 10 -29 21 -15 22 -29 2 -21 -8 3 -15 1 -15 -3 0 -12 21 -19 38 -13 18 6 15 33 -5 48 -17 13 -17 13 0 14 24 0 21 20 -3 20 -11 0 -23 -7 -27 -16z"/> <path d="M1350 264 c0 -27 4 -43 10 -39 6 3 10 13 10 21 0 8 7 14 15 14 9 0 15 -6 13 -12 -2 -7 2 -15 7 -18 6 -3 11 14 13 38 2 25 -1 42 -7 42 -6 0 -11 -7 -11 -15 0 -8 -7 -15 -15 -15 -8 0 -15 7 -15 15 0 8 -4 15 -10 15 -5 0 -10 -21 -10 -46z"/> <path d="M1480 264 c0 -27 4 -43 10 -39 6 3 10 24 10 46 0 21 -4 39 -10 39 -5 0 -10 -21 -10 -46z"/> <path d="M1561 291 c-13 -23 -5 -48 19 -61 27 -14 52 10 48 45 -2 24 -8 31 -30 33 -18 2 -30 -3 -37 -17z m49 -20 c0 -11 -5 -23 -11 -27 -14 -8 -29 14 -22 33 8 20 33 16 33 -6z"/> <path d="M1690 270 c0 -22 5 -40 10 -40 6 0 10 12 10 28 l1 27 15 -27 c22 -42 44 -36 44 12 0 45 -17 55 -22 13 l-4 -28 -14 28 c-20 41 -40 35 -40 -13z"/> <path d="M1903 294 c-4 -10 1 -22 10 -29 21 -15 22 -29 2 -22 -8 4 -17 2 -20 -2 -7 -12 21 -22 40 -15 20 8 19 23 -2 46 -15 17 -15 18 0 18 10 0 17 5 17 10 0 17 -40 11 -47 -6z"/> <path d="M2000 300 c0 -5 5 -10 10 -10 6 0 10 -16 10 -35 0 -19 5 -35 10 -35 6 0 10 16 10 35 0 19 5 35 10 35 6 0 10 5 10 10 0 6 -13 10 -30 10 -16 0 -30 -4 -30 -10z"/> <path d="M2122 298 c-34 -34 6 -90 48 -68 35 19 20 80 -20 80 -9 0 -21 -5 -28 -12z m43 -33 c0 -28 -29 -25 -33 3 -3 19 0 23 15 20 10 -2 18 -12 18 -23z"/> <path d="M2250 264 c0 -27 4 -43 10 -39 6 3 10 13 10 22 0 11 5 9 20 -8 21 -26 26 -20 10 11 -7 13 -7 21 0 25 16 10 -8 35 -31 35 -16 0 -19 -8 -19 -46z"/> <path d="M2360 271 c0 -33 3 -39 25 -43 14 -3 28 -1 31 3 3 5 -4 9 -15 9 -12 0 -21 5 -21 10 0 6 7 10 15 10 21 0 19 20 -2 21 -14 0 -13 2 5 9 30 13 28 20 -8 20 -28 0 -30 -2 -30 -39z"/> </g> </svg> 